<?xml version="1.0" encoding="UTF-8" standalone="no"?>
<svg
   width="500"
   height="306.39825"
   xml:space="preserve"
   overflow="hidden"
   version="1.1"
   id="svg28"
   sodipodi:docname="Leroy_Merlin_1980.svg"
   inkscape:version="1.4 (86a8ad7, 2024-10-11)"
   xmlns:inkscape="http://www.inkscape.org/namespaces/inkscape"
   xmlns:sodipodi="http://sodipodi.sourceforge.net/DTD/sodipodi-0.dtd"
   xmlns="http://www.w3.org/2000/svg"
   xmlns:svg="http://www.w3.org/2000/svg"><sodipodi:namedview
     id="namedview28"
     pagecolor="#ffffff"
     bordercolor="#000000"
     borderopacity="0.25"
     inkscape:showpageshadow="2"
     inkscape:pageopacity="0.0"
     inkscape:pagecheckerboard="0"
     inkscape:deskcolor="#d1d1d1"
     inkscape:zoom="1.4801512"
     inkscape:cx="183.4272"
     inkscape:cy="200.99298"
     inkscape:window-width="1920"
     inkscape:window-height="1001"
     inkscape:window-x="-9"
     inkscape:window-y="-9"
     inkscape:window-maximized="1"
     inkscape:current-layer="svg28" /><defs
     id="defs1"><clipPath
       id="clip0"><rect
         x="1322"
         y="491"
         width="1727"
         height="1058"
         id="rect1" /></clipPath></defs><g
     clip-path="url(#clip0)"
     transform="matrix(0.28973702,0,0,0.28973702,-383.11901,-142.40439)"
     fill="#ffffff"
     id="g28"><path
       d="M 1501,1549 2180.5,869 2860,1549 Z"
       fill="#7bb51c"
       fill-rule="evenodd"
       id="path1" /><path
       d="m 1797.87,883.291 12.19,12.188 c -2.48,5.192 -3.35,9.743 -2.59,13.656 0.75,3.912 3.38,8.125 7.9,12.639 l 100.89,100.896 c 6.62,6.62 12.19,10.38 16.7,11.28 3.69,0.83 7.9,-0.15 12.64,-2.93 l 12.41,12.41 c -18.05,15.35 -38.33,23.06 -60.82,23.14 -29.27,0.07 -56.96,-12.94 -83.07,-39.05 -13.09,-13.09 -22.98,-26.86 -29.68,-41.305 -6.69,-14.446 -9.93,-29.155 -9.7,-44.127 0.15,-11.436 2.1,-21.969 5.87,-31.599 3.76,-9.63 9.51,-18.697 17.26,-27.198 z"
       fill-rule="evenodd"
       id="path2" /><path
       d="m 1807.13,874.037 c 8.5,-7.75 17.58,-13.524 27.25,-17.323 9.67,-3.8 20.22,-5.775 31.66,-5.925 30.32,-0.376 58.8,12.753 85.43,39.386 26.11,26.107 39.12,53.794 39.05,83.061 0,22.571 -7.75,42.884 -23.25,60.944 l -12.42,-12.42 c 1.51,-2.4 2.45,-4.51 2.83,-6.32 0.37,-1.8 0.33,-3.83 -0.12,-6.09 -1.05,-5.12 -4.7,-10.797 -10.94,-17.041 l -100.9,-100.893 c -3.98,-3.987 -7.82,-6.47 -11.51,-7.448 -2.48,-0.677 -4.79,-0.846 -6.94,-0.508 -2.14,0.339 -4.79,1.26 -7.95,2.765 z"
       fill-rule="evenodd"
       id="path3" /><path
       d="m 1327.17,1360.09 2.93,-2.93 50.33,-50.34 3.84,-3.83 c 3.31,-3.31 6.13,-5.23 8.47,-5.76 3.16,-0.75 5.71,-0.15 7.67,1.81 3.31,3.31 3.57,7.18 0.79,11.62 -2.26,3.61 -3.54,5.8 -3.84,6.55 -0.3,0.75 -0.41,1.77 -0.34,3.04 0.23,2.49 1.77,5.16 4.63,8.02 l 132.72,132.71 -50.22,50.22 -2.94,2.94 c -2.71,2.71 -5.3,4.29 -7.78,4.74 -2.49,0.45 -4.67,-0.26 -6.55,-2.15 -3.08,-3.08 -3.61,-6.62 -1.58,-10.6 1.66,-3.31 2.6,-5.27 2.82,-5.87 0.23,-0.6 0.23,-1.47 0,-2.6 -0.3,-2.1 -1.77,-4.47 -4.4,-7.11 l -112.97,-112.97 c -2.63,-2.63 -5,-4.1 -7.11,-4.4 -1.12,-0.22 -1.99,-0.22 -2.59,0 -0.6,0.23 -2.56,1.17 -5.87,2.82 -3.99,2.04 -7.52,1.51 -10.61,-1.58 -1.88,-1.88 -2.59,-4.06 -2.14,-6.54 0.45,-2.48 2.03,-5.08 4.74,-7.79 z"
       fill-rule="evenodd"
       id="path4" /><path
       d="m 1450.61,1236.65 2.93,-2.93 50.22,-50.22 154.05,154.04 -50.22,50.22 -2.93,2.94 c -2.71,2.7 -5.31,4.28 -7.79,4.74 -2.48,0.45 -4.67,-0.27 -6.55,-2.15 -3.08,-3.08 -3.61,-6.62 -1.58,-10.61 1.66,-3.31 2.6,-5.26 2.83,-5.86 0.22,-0.61 0.22,-1.47 0,-2.6 -0.31,-2.11 -1.77,-4.48 -4.41,-7.11 L 1474.2,1254.14 c -2.64,-2.63 -5.01,-4.1 -7.11,-4.4 -1.13,-0.23 -2,-0.23 -2.6,0 -0.6,0.23 -2.56,1.17 -5.87,2.82 -3.99,2.03 -7.52,1.51 -10.61,-1.58 -1.88,-1.88 -2.59,-4.06 -2.14,-6.54 0.45,-2.49 2.03,-5.08 4.74,-7.79 z"
       fill-rule="evenodd"
       id="path5" /><path
       d="m 1513.81,1173.45 45.48,-45.48 39.95,39.95 c 2.33,2.33 3.57,4.48 3.72,6.43 0.15,1.96 -0.75,3.92 -2.71,5.87 -1.65,1.66 -3.19,2.52 -4.62,2.6 -1.43,0.07 -3.54,-0.6 -6.32,-2.03 -11.59,-5.87 -22.44,-8.34 -32.56,-7.4 -10.12,0.94 -20.03,5.36 -29.74,13.26 z"
       fill-rule="evenodd"
       id="path6" /><path
       d="m 1587.18,1100.07 2.94,-2.93 50.22,-50.22 132.6,132.6 c 2.94,2.94 5.61,4.48 8.02,4.63 1.35,0.15 2.38,0.06 3.1,-0.28 0.71,-0.34 2.91,-1.6 6.6,-3.78 4.44,-2.78 8.31,-2.52 11.63,0.79 1.95,1.95 2.55,4.51 1.8,7.67 -0.53,2.34 -2.44,5.16 -5.75,8.47 l -3.84,3.83 -50.34,50.34 -2.93,2.93 c -2.71,2.71 -5.3,4.29 -7.79,4.74 -2.48,0.45 -4.66,-0.26 -6.54,-2.14 -3.09,-3.09 -3.61,-6.62 -1.58,-10.61 1.65,-3.31 2.59,-5.27 2.82,-5.87 0.23,-0.6 0.23,-1.47 0,-2.6 -0.3,-2.1 -1.77,-4.47 -4.4,-7.11 l -112.97,-112.96 c -2.63,-2.64 -5,-4.1 -7.11,-4.4 -1.13,-0.23 -1.99,-0.23 -2.6,0 -0.6,0.22 -2.55,1.16 -5.86,2.82 -3.99,2.03 -7.53,1.5 -10.61,-1.58 -1.88,-1.88 -2.6,-4.07 -2.15,-6.55 0.46,-2.48 2.04,-5.08 4.74,-7.79 z"
       fill-rule="evenodd"
       id="path7" /><path
       d="m 1649.25,1038 2.94,-2.93 c 8.35,-8.35 15.76,-15.16 22.23,-20.43 9.56,-7.9 20.2,-12.82 31.94,-14.78 16.85,-2.86 31.75,2.18 44.69,15.12 10.61,10.61 15.99,22.61 16.14,36 0.07,5.65 -0.85,11.23 -2.77,16.76 -1.92,5.53 -5.55,13.22 -10.89,23.08 7.98,-5.87 14.47,-10.02 19.47,-12.47 5,-2.44 10.1,-4.08 15.29,-4.91 5.49,-0.83 10.7,-0.47 15.63,1.07 4.93,1.55 9.2,4.12 12.81,7.73 l 23.36,23.36 c 2.41,2.41 4.4,2.83 5.98,1.25 0.6,-0.61 0.94,-1.28 1.02,-2.04 0.07,-0.75 0,-1.99 -0.23,-3.72 -0.67,-4.44 -0.03,-7.64 1.92,-9.59 1.28,-1.28 3.24,-1.88 5.87,-1.81 2.63,0.08 4.63,0.79 5.98,2.15 2.33,2.33 4.06,6.28 5.19,11.85 1.13,5.56 1.36,11.32 0.68,17.26 -0.6,5.57 -2.16,10.71 -4.68,15.41 -2.52,4.7 -6.23,9.5 -11.12,14.39 -9.93,9.93 -20.52,14.84 -31.77,14.72 -11.25,-0.11 -21.95,-5.24 -32.11,-15.4 l -18.96,-18.96 c -4.21,-4.21 -6.69,-6.62 -7.44,-7.22 -3.39,-2.64 -7.04,-4.18 -10.95,-4.63 -4.82,-0.45 -9.48,1.13 -13.99,4.74 l -12.08,-12.08 c 3.46,-4.66 5.3,-8.61 5.53,-11.85 0.15,-2.85 -0.36,-5.43 -1.52,-7.73 -1.17,-2.29 -3.45,-5.13 -6.83,-8.52 l -29.91,-29.9 c -4.74,-4.74 -9.2,-7.36 -13.37,-7.85 -4.18,-0.49 -9.35,1 -15.52,4.46 z"
       fill-rule="evenodd"
       id="path8" /><path
       d="m 1888.75,798.506 55.3,-55.299 c 2.94,-2.934 5.31,-4.627 7.11,-5.078 3.09,-0.677 5.61,-0.038 7.56,1.918 2.41,2.408 3.2,5.38 2.37,8.916 l -1.24,5.304 c -0.45,2.107 0.15,3.988 1.81,5.643 1.88,1.881 4.14,3.31 6.77,4.288 l 87.01,34.421 49.2,49.205 c 2.94,2.934 5.61,4.476 8.02,4.627 1.35,0.15 2.39,0.056 3.1,-0.282 0.71,-0.339 2.92,-1.599 6.6,-3.781 4.44,-2.784 8.32,-2.52 11.63,0.79 2.18,2.182 2.82,4.853 1.91,8.013 -0.45,1.956 -2.4,4.664 -5.86,8.125 l -3.84,3.837 -50.33,50.334 -3.73,3.724 c -3.38,3.385 -6.21,5.304 -8.46,5.755 -3.16,0.753 -5.72,0.151 -7.68,-1.806 -3.31,-3.31 -3.57,-7.185 -0.79,-11.623 2.19,-3.687 3.45,-5.888 3.78,-6.602 0.34,-0.715 0.4,-1.712 0.17,-2.991 -0.15,-2.408 -1.69,-5.079 -4.62,-8.013 l -38.15,-38.145 -108.11,-44.239 c -4.07,-1.655 -7.83,-2.031 -11.29,-1.128 -3.31,0.752 -5.62,1.034 -6.94,0.846 -1.32,-0.188 -2.65,-0.959 -4.01,-2.313 -3.91,-3.913 -3,-8.728 2.71,-14.446 z"
       fill-rule="evenodd"
       id="path9" /><path
       d="m 1980.84,706.416 27.88,-27.874 c 5.26,-5.267 10,-5.794 14.22,-1.581 1.5,1.505 2.31,3.029 2.42,4.571 0.12,1.542 -0.39,3.781 -1.52,6.715 -2.03,5.342 -3.01,9.63 -2.94,12.865 0.16,4.665 1.02,9.292 2.6,13.882 l 3.16,8.351 22.46,60.151 -21.11,-8.464 -14.67,-38.37 c -1.28,-3.236 -3.87,-6.809 -7.78,-10.722 -4.37,-4.363 -9.9,-5.078 -16.59,-2.144 -3.69,1.58 -6.32,2.37 -7.9,2.37 -1.58,0 -3.2,-0.828 -4.86,-2.483 -2.03,-2.031 -2.89,-4.25 -2.59,-6.658 0.22,-1.58 0.79,-3.047 1.69,-4.402 0.9,-1.354 2.75,-3.423 5.53,-6.207 z"
       fill-rule="evenodd"
       id="path10" /><path
       d="m 1578.81,1197.83 c 2.41,-2.41 5.01,-3.13 7.79,-2.15 1.5,0.45 3.99,2.41 7.45,5.87 l 43,43 c 3.53,3.53 5.58,6.38 6.15,8.52 0.56,2.14 -0.21,4.27 -2.32,6.38 -1.73,1.73 -3.61,2.55 -5.64,2.48 -2.03,-0.08 -4.59,-1.05 -7.67,-2.94 -6.47,-3.91 -12.29,-6.07 -17.44,-6.48 -5.15,-0.42 -10.06,0.8 -14.73,3.66 l -13.09,-13.09 c 2.26,-6.47 3.2,-12 2.82,-16.59 -0.37,-4.59 -2.14,-9.44 -5.3,-14.56 -2.26,-3.46 -3.44,-6.22 -3.56,-8.29 -0.11,-2.07 0.74,-4.01 2.54,-5.81 z"
       fill-rule="evenodd"
       id="path11" /><path
       d="m 1527.82,1360.54 c 2.11,-2.1 4.52,-2.78 7.23,-2.03 1.27,0.38 3.16,1.81 5.64,4.29 l 45.93,45.93 -43.11,43.11 -12.64,-12.64 c 3.01,-4.36 5.17,-8.03 6.49,-11 1.32,-2.97 2.16,-6.23 2.54,-9.76 0.68,-5.64 0.15,-11.96 -1.58,-18.96 -1.73,-7 -4.44,-14 -8.13,-20.99 -2.93,-5.34 -4.55,-9.18 -4.85,-11.51 -0.3,-2.34 0.53,-4.48 2.48,-6.44 z"
       fill-rule="evenodd"
       id="path12" /><path
       d="m 1661.08,1237.89 c 2.11,-2.11 4.2,-2.95 6.27,-2.54 2.07,0.42 4.64,2.16 7.73,5.25 l 39.84,39.84 -46.95,46.94 -12.19,-12.18 c 4.14,-5.65 7.13,-10.74 8.97,-15.3 1.84,-4.55 2.99,-9.83 3.44,-15.85 0.46,-6.02 0.15,-11.48 -0.9,-16.37 -1.05,-4.89 -3.16,-10.64 -6.32,-17.26 -1.58,-3.24 -2.35,-5.74 -2.31,-7.51 0.03,-1.77 0.84,-3.44 2.42,-5.02 z"
       fill-rule="evenodd"
       id="path13" /><path
       d="m 2177.1,496.265 55.61,55.613 -41.13,87.95 45.2,-24.52 -38.2,38.195 -116.61,61.708 -6.29,-6.298 86.31,-178.522 c 2.86,-6.033 4.19,-10.688 3.98,-13.965 -0.04,-2.027 -1.09,-4.538 -3.16,-7.533 -4.08,-6.223 -4.28,-11.175 -0.6,-14.857 2,-1.994 4.28,-2.814 6.86,-2.461 2.58,0.354 5.26,1.917 8.03,4.69 z"
       fill-rule="evenodd"
       id="path14" /><path
       d="m 2276.44,595.609 52.76,52.761 3.21,3.209 c 5.94,5.941 6.92,10.906 2.93,14.894 -3.14,3.145 -6.8,3.631 -10.96,1.459 -3.46,-1.77 -5.5,-2.777 -6.13,-3.022 -0.63,-0.244 -1.53,-0.258 -2.69,-0.043 -2.18,0.277 -4.61,1.757 -7.29,4.441 l -115.16,115.159 c -2.69,2.684 -4.17,5.115 -4.44,7.293 -0.22,1.166 -0.21,2.062 0.04,2.69 0.24,0.628 1.25,2.67 3.02,6.128 2.17,4.166 1.69,7.821 -1.46,10.966 -3.99,3.988 -8.95,3.011 -14.89,-2.93 l -3.21,-3.209 -52.88,-52.88 -3.92,-3.922 c -3.49,-3.486 -5.61,-6.637 -6.35,-9.455 -0.75,-2.818 -0.09,-5.262 1.98,-7.333 3.38,-3.375 7.39,-3.583 12.03,-0.624 3.86,2.323 6.16,3.666 6.91,4.029 0.75,0.362 1.74,0.476 2.99,0.34 2.56,-0.192 5.34,-1.784 8.34,-4.775 z"
       fill-rule="evenodd"
       id="path15" /><path
       d="m 2369.94,689.108 3.09,3.09 52.88,52.88 -157.03,157.035 -52.88,-52.881 -3.09,-3.089 c -2.86,-2.852 -4.54,-5.569 -5.05,-8.148 -0.5,-2.581 0.2,-4.829 2.12,-6.747 3.14,-3.144 6.8,-3.631 10.96,-1.459 3.46,1.771 5.5,2.778 6.13,3.022 0.63,0.244 1.52,0.259 2.69,0.044 2.18,-0.277 4.61,-1.758 7.29,-4.442 l 115.16,-115.159 c 2.69,-2.684 4.17,-5.115 4.44,-7.293 0.22,-1.165 0.2,-2.062 -0.04,-2.69 -0.24,-0.627 -1.25,-2.67 -3.02,-6.128 -2.17,-4.165 -1.69,-7.821 1.46,-10.965 1.91,-1.918 4.16,-2.622 6.74,-2.112 2.58,0.509 5.3,2.19 8.15,5.042 z"
       fill-rule="evenodd"
       id="path16" /><path
       d="m 2436.49,755.654 47.89,47.89 -40.73,40.725 c -2.38,2.378 -4.58,3.628 -6.6,3.751 -2.03,0.123 -4.07,-0.845 -6.13,-2.905 -1.74,-1.743 -2.66,-3.355 -2.76,-4.838 -0.11,-1.482 0.56,-3.654 1.99,-6.514 5.89,-11.907 8.26,-23.112 7.12,-33.613 -1.15,-10.501 -5.89,-20.846 -14.24,-31.036 z"
       fill-rule="evenodd"
       id="path17" /><path
       d="m 2513.75,832.917 3.09,3.089 52.88,52.881 -135.18,135.173 c -2.99,2.99 -4.54,5.74 -4.66,8.23 -0.13,1.4 -0.01,2.47 0.35,3.22 0.36,0.75 1.7,3.05 4.03,6.9 2.96,4.65 2.75,8.66 -0.63,12.03 -1.99,2 -4.63,2.58 -7.92,1.75 -2.42,-0.59 -5.38,-2.62 -8.87,-6.11 l -4.04,-4.04 -53,-52.999 -3.08,-3.089 c -2.86,-2.853 -4.54,-5.569 -5.05,-8.149 -0.51,-2.58 0.2,-4.829 2.11,-6.746 3.15,-3.145 6.8,-3.631 10.97,-1.459 3.46,1.77 5.5,2.778 6.13,3.022 0.63,0.244 1.52,0.258 2.69,0.043 2.18,-0.276 4.61,-1.757 7.29,-4.441 l 115.16,-115.159 c 2.68,-2.684 4.17,-5.115 4.44,-7.293 0.22,-1.166 0.2,-2.062 -0.04,-2.69 -0.25,-0.627 -1.25,-2.67 -3.02,-6.128 -2.18,-4.166 -1.69,-7.821 1.46,-10.965 1.91,-1.918 4.16,-2.622 6.74,-2.112 2.58,0.509 5.3,2.19 8.15,5.042 z"
       fill-rule="evenodd"
       id="path18" /><path
       d="m 2579.11,898.275 3.09,3.089 c 8.79,8.794 15.97,16.587 21.54,23.38 8.34,10.033 13.63,21.147 15.85,33.341 3.25,17.511 -1.73,32.863 -14.92,46.055 -10.81,10.81 -23.16,16.19 -37.03,16.12 -5.85,-0.02 -11.65,-1.07 -17.41,-3.15 -5.76,-2.08 -13.8,-5.97 -24.1,-11.67 6.22,8.36 10.63,15.15 13.25,20.38 2.62,5.23 4.4,10.53 5.34,15.93 0.95,5.7 0.67,11.1 -0.85,16.18 -1.51,5.08 -4.11,9.46 -7.79,13.14 l -23.81,23.81 c -2.46,2.46 -2.85,4.52 -1.19,6.18 0.63,0.63 1.34,0.99 2.12,1.09 0.78,0.09 2.07,0.03 3.86,-0.18 4.58,-0.62 7.91,0.09 9.97,2.15 1.35,1.35 2,3.39 1.97,6.11 -0.04,2.73 -0.74,4.79 -2.12,6.17 -2.38,2.37 -6.44,4.1 -12.19,5.18 -5.75,1.07 -11.71,1.21 -17.89,0.41 -5.77,-0.72 -11.12,-2.42 -16.04,-5.11 -4.91,-2.69 -9.94,-6.61 -15.09,-11.76 -10.46,-10.46 -15.72,-21.52 -15.8,-33.17 -0.07,-11.65 5.07,-22.65 15.43,-33.01 l 19.33,-19.33 c 4.29,-4.29 6.74,-6.82 7.35,-7.59 2.68,-3.47 4.21,-7.22 4.61,-11.27 0.39,-4.98 -1.32,-9.84 -5.14,-14.578 l 12.31,-12.31 c 4.89,3.665 9.01,5.641 12.37,5.929 2.96,0.204 5.63,-0.279 7.98,-1.449 2.36,-1.17 5.27,-3.48 8.72,-6.931 l 30.49,-30.487 c 4.83,-4.832 7.46,-9.407 7.9,-13.726 0.43,-4.318 -1.19,-9.703 -4.88,-16.154 z"
       fill-rule="evenodd"
       id="path19" /><path
       d="m 2685.21,1004.38 3.09,3.09 53,53 4.04,4.04 c 3.49,3.49 5.52,6.44 6.11,8.87 0.83,3.28 0.25,5.92 -1.74,7.92 -3.38,3.37 -7.39,3.58 -12.03,0.62 -3.78,-2.4 -6.07,-3.76 -6.85,-4.08 -0.79,-0.33 -1.84,-0.46 -3.16,-0.41 -2.57,0.2 -5.31,1.75 -8.23,4.66 l -135.29,135.3 -52.88,-52.88 -3.09,-3.09 c -2.85,-2.86 -4.53,-5.57 -5.04,-8.15 -0.51,-2.58 0.19,-4.83 2.11,-6.75 3.14,-3.14 6.8,-3.63 10.96,-1.46 3.46,1.77 5.51,2.78 6.13,3.02 0.63,0.25 1.53,0.26 2.69,0.05 2.18,-0.28 4.61,-1.76 7.3,-4.44 l 115.15,-115.16 c 2.69,-2.69 4.17,-5.12 4.45,-7.3 0.21,-1.16 0.2,-2.06 -0.05,-2.69 -0.24,-0.62 -1.25,-2.67 -3.02,-6.12 -2.17,-4.17 -1.68,-7.82 1.46,-10.97 1.92,-1.916 4.17,-2.621 6.75,-2.111 2.58,0.509 5.29,2.191 8.14,5.041 z"
       fill-rule="evenodd"
       id="path20" /><path
       d="m 2815.2,1134.36 3.08,3.09 53,53 3.09,3.09 c 2.86,2.85 4.54,5.57 5.05,8.15 0.51,2.58 -0.2,4.83 -2.12,6.75 -3.14,3.14 -6.8,3.63 -10.96,1.45 -3.46,-1.77 -5.5,-2.77 -6.13,-3.02 -0.63,-0.24 -1.52,-0.26 -2.69,-0.04 -2.18,0.28 -4.61,1.76 -7.29,4.44 l -115.16,115.16 c -2.69,2.68 -4.17,5.11 -4.44,7.29 -0.22,1.17 -0.2,2.06 0.04,2.69 0.24,0.63 1.25,2.67 3.02,6.13 2.17,4.17 1.69,7.82 -1.46,10.97 -1.91,1.91 -4.16,2.62 -6.74,2.11 -2.58,-0.51 -5.3,-2.19 -8.15,-5.04 l -3.09,-3.09 -53,-53 -3.09,-3.09 c -2.85,-2.85 -4.53,-5.57 -5.04,-8.15 -0.51,-2.58 0.19,-4.83 2.11,-6.75 3.15,-3.14 6.8,-3.63 10.97,-1.46 3.45,1.77 5.5,2.78 6.12,3.03 0.63,0.24 1.53,0.25 2.69,0.04 2.18,-0.28 4.61,-1.76 7.3,-4.44 l 115.16,-115.16 c 2.68,-2.69 4.16,-5.12 4.44,-7.29 0.21,-1.17 0.2,-2.07 -0.05,-2.69 -0.24,-0.63 -1.25,-2.67 -3.02,-6.13 -2.17,-4.17 -1.68,-7.82 1.46,-10.97 1.92,-1.92 4.17,-2.62 6.75,-2.11 2.58,0.51 5.29,2.19 8.15,5.04 z"
       fill-rule="evenodd"
       id="path21" /><path
       d="m 2918.29,1237.45 52.05,52.05 -43.08,169.52 -50.74,50.74 -32.44,-32.44 53.91,-215.29 c 1.18,-4.66 1.78,-8.12 1.82,-10.38 0.04,-2.26 -0.54,-4.53 -1.74,-6.81 l -2.91,-6.12 c -0.8,-1.58 -1.06,-3.22 -0.78,-4.93 0.28,-1.71 1.04,-3.17 2.27,-4.4 1.3,-1.31 2.86,-2.16 4.69,-2.56 1.83,-0.4 3.56,-0.23 5.21,0.5 1.88,0.81 5.8,4.18 11.74,10.12 z"
       fill-rule="evenodd"
       id="path22" /><path
       d="m 3012.17,1331.33 29.7,29.71 c 4.04,4.04 6.08,7.31 6.12,9.8 0.12,2.58 -0.66,4.71 -2.35,6.39 -1.61,1.62 -3.19,2.45 -4.75,2.5 -1.56,0.05 -4.45,-0.66 -8.68,-2.13 -6.27,-2.13 -12.63,-2.11 -19.06,0.04 -4.65,1.64 -9.66,5.15 -15.03,10.52 l -52.46,52.46 8,-33.19 31.87,-31.87 c 6.44,-6.44 10.4,-12.34 11.87,-17.7 1.47,-5.35 0.98,-11.71 -1.48,-19.08 -0.9,-2.43 -1.22,-4.4 -0.97,-5.91 0.25,-1.52 1.06,-2.97 2.44,-4.35 2.07,-2.07 4.28,-2.89 6.62,-2.46 2.35,0.42 5.07,2.18 8.16,5.27 z"
       fill-rule="evenodd"
       id="path23" /><path
       d="m 2880.17,1280.09 -7.66,32.85 -61.66,61.66 c -5.37,5.37 -8.85,10.71 -10.44,16.02 -1.59,5.32 -1.47,11.1 0.34,17.37 l 1.61,5.52 c 0.91,3.21 0.21,5.97 -2.09,8.27 -1.76,1.76 -3.97,2.47 -6.63,2.11 -2.26,-0.27 -5.37,-2.39 -9.33,-6.35 l -27.45,-27.45 c -7.21,-7.21 -8.82,-12.81 -4.84,-16.79 1.39,-1.38 2.85,-2.1 4.41,-2.15 1.56,-0.06 4.3,0.5 8.21,1.65 11.67,3.54 22.88,-0.06 33.61,-10.8 z"
       fill-rule="evenodd"
       id="path24" /><path
       d="m 2412.32,822.601 c 2.54,2.535 3.32,5.237 2.35,8.105 -0.44,1.551 -2.42,4.091 -5.95,7.619 l -43.83,43.832 c -3.61,3.605 -6.52,5.682 -8.73,6.23 -2.21,0.549 -4.43,-0.286 -6.65,-2.504 -1.82,-1.822 -2.71,-3.785 -2.66,-5.888 0.04,-2.104 1.01,-4.738 2.91,-7.903 3.94,-6.639 6.09,-12.625 6.43,-17.958 0.34,-5.333 -1.01,-10.441 -4.05,-15.322 l 13.35,-13.345 c 6.74,2.447 12.49,3.515 17.23,3.201 4.75,-0.312 9.75,-2.063 15,-5.251 3.55,-2.281 6.39,-3.462 8.54,-3.544 2.14,-0.083 4.16,0.827 6.06,2.728 z"
       fill-rule="evenodd"
       id="path25" /><path
       d="m 2133.69,558.691 -22.15,47.34 -34.63,34.628 c -3.53,3.528 -5.92,6.198 -7.18,8.009 -1.25,1.811 -2.33,4.112 -3.22,6.904 -1.71,5.038 -1.94,9.866 -0.7,14.485 l 1.64,7.158 c 1.24,4.774 0.79,8.235 -1.35,10.383 -3.92,3.911 -8.84,2.896 -14.78,-3.046 l -29.83,-29.827 c -5.94,-5.942 -7,-10.829 -3.16,-14.664 1.23,-1.227 2.42,-1.91 3.59,-2.046 1.17,-0.138 2.93,0.125 5.27,0.786 13.4,4.192 25.77,0.612 37.12,-10.739 z"
       fill-rule="evenodd"
       id="path26" /><path
       d="m 2688.11,1212.29 c 2.22,2.22 2.96,4.72 2.23,7.52 -0.37,1.32 -1.82,3.24 -4.35,5.77 l -46.82,46.83 -45.39,-45.4 12.88,-12.88 c 4.57,3.19 8.41,5.49 11.51,6.91 3.1,1.41 6.49,2.34 10.16,2.79 5.86,0.8 12.4,0.36 19.62,-1.32 7.22,-1.67 14.42,-4.36 21.61,-8.07 5.49,-2.95 9.44,-4.56 11.85,-4.83 2.41,-0.27 4.64,0.62 6.7,2.68 z"
       fill-rule="evenodd"
       id="path27" /><path
       d="m 2372.19,907.177 c 2.22,2.218 3.13,4.396 2.73,6.533 -0.39,2.137 -2.16,4.777 -5.3,7.922 l -40.61,40.61 -49.44,-49.434 12.43,-12.425 c 5.91,4.383 11.24,7.567 15.99,9.554 4.75,1.986 10.25,3.264 16.49,3.832 6.24,0.569 11.89,0.349 16.94,-0.66 5.05,-1.01 10.98,-3.096 17.79,-6.259 3.32,-1.583 5.9,-2.34 7.73,-2.272 1.84,0.069 3.58,0.935 5.25,2.599 z"
       fill-rule="evenodd"
       id="path28" /></g></svg>
